<?xml version="1.0" encoding="utf-8"?>
<!-- Generator: Adobe Illustrator 27.9.0, SVG Export Plug-In . SVG Version: 6.00 Build 0)  -->
<svg version="1.1" id="Layer_1" xmlns="http://www.w3.org/2000/svg" xmlns:xlink="http://www.w3.org/1999/xlink" x="0px" y="0px"
	 viewBox="0 0 183.74 183.78" style="enable-background:new 0 0 183.74 183.78;" xml:space="preserve">
<style type="text/css">
	.st0{fill:#D6DD23;}
	.st1{fill:#08B7A2;}
</style>
<g>
	<path class="st0" d="M8.23,19.78C2.92,25.08,0,32.16,0,39.68c0,7.65,2.93,14.79,8.26,20.13c5.31,5.3,12.41,8.23,19.98,8.23
		c7.6,0,14.71-2.94,20.04-8.27l0.05-0.05V0H29.12L8.23,19.78z"/>
	<polygon class="st0" points="53.77,53.14 106.82,0 53.77,0 	"/>
	<path class="st0" d="M123.58,135.53c-5.31,5.32-8.24,12.43-8.25,20c0,7.59,2.94,14.7,8.27,20.01c5.32,5.31,12.42,8.25,20.01,8.25
		c7.59,0,14.69-2.94,19.99-8.26l19.75-20.92v-19.22h-59.63L123.58,135.53z"/>
	<polygon class="st0" points="183.35,129.95 183.35,76.81 130.28,129.95 	"/>
	<path class="st1" d="M117.91,70.76c-2.23,0.27-4.38,0.78-6.43,1.49c0.71-2.05,1.22-4.2,1.49-6.44V2.2L52.31,61.83l-0.13,0.12v1.38
		c0.03,16.79,13.72,29.35,30.5,29.38h0.01c3.5,0,6.87-0.6,10.02-1.7c-1.1,3.15-1.7,6.52-1.7,10.02
		c0.04,16.79,13.68,30.46,30.47,30.51l0.12-0.13l8.31-8.29l52.28-52.36H117.91z"/>
	<path class="st1" d="M183.35,5.25c-2.15,0.04-4.25,0.3-6.28,0.76c0.61-1.93,1.03-3.94,1.25-6.01h-59.69v27.39h29.36
		c2.32,0,4.57-0.27,6.74-0.77c-0.91,2.88-1.41,5.94-1.41,9.11v29.36h30.03h0.39V5.24C183.61,5.24,183.48,5.24,183.35,5.25z"/>
</g>
</svg>
