<?xml version="1.0" encoding="UTF-8" standalone="no"?>
<!-- Creator: CorelDRAW 2019 (64-Bit) -->

<svg
   xml:space="preserve"
   width="201.75783"
   height="61.598625"
   version="1.1"
   style="clip-rule:evenodd;fill-rule:evenodd;image-rendering:optimizeQuality;shape-rendering:geometricPrecision;text-rendering:geometricPrecision"
   viewBox="0 0 35.0413 10.739234"
   id="svg8585"
   sodipodi:docname="logo.svg"
   inkscape:version="1.3.2 (091e20e, 2023-11-25, custom)"
   inkscape:export-filename="logo.png"
   inkscape:export-xdpi="96"
   inkscape:export-ydpi="96"
   xmlns:inkscape="http://www.inkscape.org/namespaces/inkscape"
   xmlns:sodipodi="http://sodipodi.sourceforge.net/DTD/sodipodi-0.dtd"
   xmlns="http://www.w3.org/2000/svg"
   xmlns:svg="http://www.w3.org/2000/svg"><sodipodi:namedview
   id="namedview8587"
   pagecolor="#ffffff"
   bordercolor="#000000"
   borderopacity="0.25"
   inkscape:showpageshadow="2"
   inkscape:pageopacity="0.0"
   inkscape:pagecheckerboard="0"
   inkscape:deskcolor="#d1d1d1"
   showgrid="false"
   inkscape:zoom="1.168"
   inkscape:cx="111.30137"
   inkscape:cy="89.469178"
   inkscape:window-width="1366"
   inkscape:window-height="705"
   inkscape:window-x="-8"
   inkscape:window-y="-8"
   inkscape:window-maximized="1"
   inkscape:current-layer="Layer_x0020_1" />
 <defs
   id="defs7865">
  <style
   type="text/css"
   id="style7855">
   <![CDATA[
    .str28 {stroke:black;stroke-width:0.05;stroke-miterlimit:22.9256}
    .str5 {stroke:black;stroke-width:0.05;stroke-miterlimit:22.9256}
    .str51 {stroke:black;stroke-width:0.05;stroke-miterlimit:22.9256}
    .str8 {stroke:black;stroke-width:0.05;stroke-miterlimit:22.9256}
    .str9 {stroke:black;stroke-width:0.05;stroke-miterlimit:22.9256}
    .str68 {stroke:black;stroke-width:0.05;stroke-miterlimit:22.9256}
    .str19 {stroke:black;stroke-width:0.05;stroke-miterlimit:22.9256}
    .str18 {stroke:black;stroke-width:0.05;stroke-miterlimit:22.9256}
    .str33 {stroke:black;stroke-width:0.05;stroke-miterlimit:22.9256}
    .str41 {stroke:black;stroke-width:0.05;stroke-miterlimit:22.9256}
    .str7 {stroke:black;stroke-width:0.05;stroke-miterlimit:22.9256}
    .str6 {stroke:black;stroke-width:0.05;stroke-miterlimit:22.9256}
    .str65 {stroke:black;stroke-width:0.05;stroke-miterlimit:22.9256}
    .str47 {stroke:black;stroke-width:0.05;stroke-miterlimit:22.9256}
    .str42 {stroke:black;stroke-width:0.05;stroke-miterlimit:22.9256}
    .str30 {stroke:black;stroke-width:0.05;stroke-miterlimit:22.9256}
    .str50 {stroke:black;stroke-width:0.05;stroke-miterlimit:22.9256}
    .str15 {stroke:black;stroke-width:0.05;stroke-miterlimit:22.9256}
    .str14 {stroke:black;stroke-width:0.05;stroke-miterlimit:22.9256}
    .str63 {stroke:black;stroke-width:0.05;stroke-miterlimit:22.9256}
    .str55 {stroke:black;stroke-width:0.05;stroke-miterlimit:22.9256}
    .str20 {stroke:black;stroke-width:0.05;stroke-miterlimit:22.9256}
    .str21 {stroke:black;stroke-width:0.05;stroke-miterlimit:22.9256}
    .str58 {stroke:black;stroke-width:0.05;stroke-miterlimit:22.9256}
    .str67 {stroke:black;stroke-width:0.05;stroke-miterlimit:22.9256}
    .str32 {stroke:black;stroke-width:0.05;stroke-miterlimit:22.9256}
    .str38 {stroke:black;stroke-width:0.05;stroke-miterlimit:22.9256}
    .str66 {stroke:black;stroke-width:0.05;stroke-miterlimit:22.9256}
    .str27 {stroke:black;stroke-width:0.05;stroke-miterlimit:22.9256}
    .str26 {stroke:black;stroke-width:0.05;stroke-miterlimit:22.9256}
    .str39 {stroke:black;stroke-width:0.05;stroke-miterlimit:22.9256}
    .str57 {stroke:black;stroke-width:0.05;stroke-miterlimit:22.9256}
    .str54 {stroke:black;stroke-width:0.05;stroke-miterlimit:22.9256}
    .str25 {stroke:black;stroke-width:0.05;stroke-miterlimit:22.9256}
    .str24 {stroke:black;stroke-width:0.05;stroke-miterlimit:22.9256}
    .str29 {stroke:black;stroke-width:0.05;stroke-miterlimit:22.9256}
    .str31 {stroke:black;stroke-width:0.05;stroke-miterlimit:22.9256}
    .str52 {stroke:black;stroke-width:0.05;stroke-miterlimit:22.9256}
    .str64 {stroke:black;stroke-width:0.05;stroke-miterlimit:22.9256}
    .str53 {stroke:black;stroke-width:0.05;stroke-miterlimit:22.9256}
    .str17 {stroke:black;stroke-width:0.05;stroke-miterlimit:22.9256}
    .str16 {stroke:black;stroke-width:0.05;stroke-miterlimit:22.9256}
    .str62 {stroke:black;stroke-width:0.05;stroke-miterlimit:22.9256}
    .str11 {stroke:black;stroke-width:0.05;stroke-miterlimit:22.9256}
    .str10 {stroke:black;stroke-width:0.05;stroke-miterlimit:22.9256}
    .str34 {stroke:black;stroke-width:0.05;stroke-miterlimit:22.9256}
    .str12 {stroke:black;stroke-width:0.05;stroke-miterlimit:22.9256}
    .str13 {stroke:black;stroke-width:0.05;stroke-miterlimit:22.9256}
    .str48 {stroke:black;stroke-width:0.05;stroke-miterlimit:22.9256}
    .str61 {stroke:black;stroke-width:0.05;stroke-miterlimit:22.9256}
    .str46 {stroke:black;stroke-width:0.05;stroke-miterlimit:22.9256}
    .str56 {stroke:black;stroke-width:0.05;stroke-miterlimit:22.9256}
    .str23 {stroke:black;stroke-width:0.05;stroke-miterlimit:22.9256}
    .str22 {stroke:black;stroke-width:0.05;stroke-miterlimit:22.9256}
    .str44 {stroke:black;stroke-width:0.05;stroke-miterlimit:22.9256}
    .str43 {stroke:black;stroke-width:0.05;stroke-miterlimit:22.9256}
    .str37 {stroke:black;stroke-width:0.05;stroke-miterlimit:22.9256}
    .str69 {stroke:black;stroke-width:0.05;stroke-miterlimit:22.9256}
    .str40 {stroke:black;stroke-width:0.05;stroke-miterlimit:22.9256}
    .str35 {stroke:black;stroke-width:0.05;stroke-miterlimit:22.9256}
    .str59 {stroke:black;stroke-width:0.05;stroke-miterlimit:22.9256}
    .str49 {stroke:black;stroke-width:0.05;stroke-miterlimit:22.9256}
    .str45 {stroke:black;stroke-width:0.05;stroke-miterlimit:22.9256}
    .str60 {stroke:black;stroke-width:0.05;stroke-miterlimit:22.9256}
    .str36 {stroke:black;stroke-width:0.05;stroke-miterlimit:22.9256}
    .str1 {stroke:black;stroke-width:0.07;stroke-miterlimit:22.9256}
    .str3 {stroke:black;stroke-width:0.1;stroke-miterlimit:22.9256}
    .str2 {stroke:black;stroke-width:0.1;stroke-miterlimit:22.9256}
    .str4 {stroke:black;stroke-width:0.1;stroke-miterlimit:22.9256}
    .str0 {stroke:black;stroke-width:0.17;stroke-miterlimit:22.9256}
    .fil7 {fill:none}
    .fil9 {fill:#FEFEFE}
    .fil6 {fill:#FFF8AF}
    .fil1 {fill:#FFF212}
    .fil3 {fill:#D2E28B}
    .fil4 {fill:#AB3935}
    .fil12 {fill:#00A859}
    .fil10 {fill:black}
    .fil8 {fill:#02F2FF}
    .fil0 {fill:#B3B3B3}
    .fil5 {fill:#FFA900}
    .fil2 {fill:#FEFEFE;fill-rule:nonzero}
    .fil11 {fill:black;fill-rule:nonzero}
   ]]>
  </style>
    <mask
   id="id0">
  <linearGradient
   id="id1"
   gradientUnits="userSpaceOnUse"
   x1="4.0599999"
   y1="7"
   x2="5.6700001"
   y2="2.95">
   <stop
   offset="0"
   style="stop-opacity:1; stop-color:white"
   id="stop7857" />
   <stop
   offset="1"
   style="stop-opacity:0; stop-color:white"
   id="stop7859" />
  </linearGradient>
     <rect
   style="fill:url(#id1)"
   x="-0.07"
   y="0.2"
   width="12.82"
   height="9.29"
   id="rect7862" />
    </mask>
 <rect
   x="297.43716"
   y="575.52051"
   width="770.58636"
   height="107.46445"
   id="rect4101" /><rect
   x="297.43716"
   y="575.52051"
   width="1988.4158"
   height="86.735435"
   id="rect6337" />
   
   
   
   
   
   
   
   
   
   
   
   
   
   
   
   
   
   
   
   
   
   
   
   
   
   
   
   
   
   
   
   
   
   
   
   
   
   
  <rect
   x="297.43716"
   y="575.52051"
   width="770.58636"
   height="107.46445"
   id="rect9985" />
    
    
    
    
   <rect
   x="11.715101"
   y="-123.54107"
   width="189.57162"
   height="56.445488"
   id="rect1" /></defs>
 
 <g
   id="Layer_x0020_1"
   inkscape:label="Layer 1"
   inkscape:groupmode="layer"
   transform="translate(-2.2875828,-1.384647)">
  <metadata
   id="CorelCorpID_0Corel-Layer" />
  
  
  
 <path
   style="fill:#000000"
   d="m 32.569613,9.7365489 c 0,-0.06386 0.207957,-0.486054 0.462126,-0.93821 l 0.462126,-0.822101 -0.668377,-1.195169 c -0.61143,-1.093339 -0.682892,-1.16264 -0.838739,-0.813374 -0.119925,0.268762 -0.267801,0.35087 -0.499483,0.277337 -0.560867,-0.178012 -0.835416,0.233856 -0.835416,1.253262 0,0.925476 -0.0067,0.937534 -0.523026,0.937534 h -0.523026 v -1.481908 -1.481908 h 0.523026 c 0.287664,0 0.523026,0.08026 0.523026,0.178361 0,0.100519 0.171199,0.06949 0.39227,-0.0711 0.272075,-0.173027 0.675228,-0.220641 1.315739,-0.155394 0.862843,0.08789 0.946264,0.138751 1.270665,0.774631 0.394369,0.773027 0.571439,0.748516 0.857654,-0.118724 0.178269,-0.54016 0.268462,-0.607769 0.810782,-0.607769 h 0.610201 l -1.111967,2.13569 c -1.041347,2.000056 -1.147392,2.139161 -1.669774,2.190323 -0.306794,0.03005 -0.557807,0.0024 -0.557807,-0.061481 z M 3.8031659,6.9891199 c 0,-1.717784 0.05467,-2.217152 0.261513,-2.388818 0.229958,-0.190848 0.261525,0.03272 0.261611,1.85283 l 9.7e-5,2.069867 1.655002,-0.01338 c 0.910252,-0.0074 1.707994,-0.06637 1.772762,-0.131137 0.06477,-0.06477 0.261419,0.01225 0.437005,0.171156 0.307879,0.278626 0.319247,0.208209 0.319247,-1.977533 0,-2.135756 0.02262,-2.285599 0.39227,-2.598567 0.391874,-0.331785 0.391962,-0.331754 0.08717,0.03029 -0.255927,0.304003 -0.305099,0.723345 -0.305099,2.601936 v 2.239524 l 0.450219,-0.42266 c 0.24762,-0.232463 0.424141,-0.313934 0.392269,-0.181046 -0.04614,0.19237 0.288487,0.245671 1.6417891,0.261514 l 1.699738,0.0199 9.7e-5,-1.955877 c 8.3e-5,-1.666905 0.03873,-1.941051 0.261611,-1.855526 0.213114,0.08178 0.261513,0.50279 0.261513,2.274829 v 2.174476 l -0.566611,-0.144606 c -0.311636,-0.07953 -1.135403,-0.137799 -1.830592,-0.129475 -0.695189,0.0083 -1.7739301,0.01513 -2.3972031,0.01513 -0.623273,0 -1.702015,-0.0068 -2.397204,-0.01513 -0.695189,-0.0083 -1.518956,0.04994 -1.830592,0.129475 l -0.566612,0.144609 z M 15.309744,5.9078669 v -2.52796 h 0.435856 0.435855 v 2.52796 2.527961 H 15.7456 15.309744 Z m 1.743421,1.046053 c 0,-1.464474 0.0051,-1.481908 0.435856,-1.481908 0.430727,0 0.435855,0.01743 0.435855,1.481908 0,1.464474 -0.0051,1.481908 -0.435855,1.481908 -0.430728,0 -0.435856,-0.01743 -0.435856,-1.481908 z m 1.743422,-1.046053 v -2.52796 h 0.435855 c 0.420209,0 0.435855,0.04068 0.435855,1.133224 0,0.623273 0.02752,1.133223 0.06116,1.133223 0.03364,0 0.301686,-0.08385 0.595668,-0.186332 0.702124,-0.244762 1.502458,0.151106 1.751851,0.866516 0.479384,1.375163 -0.829205,2.593644 -2.071452,1.928814 -0.232456,-0.124407 -0.337223,-0.124407 -0.337223,0 0,0.09926 -0.196135,0.180476 -0.435855,0.180476 h -0.435855 z m 2.288792,1.265814 c 0.251894,-0.470668 -0.331433,-1.095699 -0.864647,-0.926463 -0.555762,0.176392 -0.671717,0.798678 -0.217378,1.16658 0.432872,0.350518 0.810813,0.266648 1.082025,-0.240117 z m 1.721076,-0.219761 c 0,-1.464474 0.0051,-1.481908 0.435856,-1.481908 0.23972,0 0.435855,0.08806 0.435855,0.19569 0,0.133311 0.06947,0.140112 0.217928,0.02134 0.678658,-0.542958 1.529209,-0.352467 1.197091,0.268102 -0.134214,0.250781 -0.300847,0.32616 -0.567098,0.256534 -0.533595,-0.139539 -0.847921,0.373426 -0.847921,1.383764 0,0.778053 -0.03137,0.838388 -0.435855,0.838388 -0.430728,0 -0.435856,-0.01743 -0.435856,-1.481907 z m 3.352418,1.365222 c -0.311675,-0.125402 -0.737286,-1.003532 -0.737286,-1.521184 0,-0.651624 0.702405,-1.375499 1.318675,-1.358983 0.281554,0.0075 0.884573,0.01743 1.340042,0.02197 l 0.828125,0.0083 v 1.483315 1.483316 h -0.523026 c -0.29057,0 -0.523027,-0.09298 -0.523027,-0.20921 0,-0.162719 -0.04649,-0.162719 -0.20921,0 -0.208461,0.20846 -1.073084,0.261997 -1.494293,0.09252 z m 1.703503,-1.336488 c 0,-0.738641 -0.773443,-1.090304 -1.218515,-0.554024 -0.281204,0.338829 -0.08792,1.090318 0.303338,1.179415 0.476231,0.108445 0.915177,-0.191511 0.915177,-0.625391 z M 4.7420609,5.8206959 c 0,-1.198602 0.02785,-1.688939 0.0619,-1.089638 0.03404,0.599301 0.03404,1.579976 0,2.179277 -0.03404,0.599301 -0.0619,0.108963 -0.0619,-1.089639 z m 7.6710521,0 c 0,-1.198602 0.02785,-1.688939 0.0619,-1.089638 0.03404,0.599301 0.03404,1.579976 0,2.179277 -0.03404,0.599301 -0.0619,0.108963 -0.0619,-1.089639 z m 4.664597,-1.277991 c -0.447488,-0.53919 0.335259,-1.226397 0.831578,-0.730078 0.207027,0.207026 0.226219,0.342604 0.08112,0.573018 -0.249132,0.39561 -0.656533,0.465717 -0.912695,0.15706 z M 7.1156659,3.3799069 c -0.157133,-0.101547 -0.178636,-0.170069 -0.05387,-0.171673 0.114201,-0.0015 0.256125,0.07578 0.315387,0.171673 0.133774,0.21645 0.07342,0.21645 -0.261513,0 z"
   id="path1" /></g>
</svg>
